<mxfile host="Electron" modified="2024-05-16T08:25:36.523Z" agent="Mozilla/5.0 (Windows NT 10.0; Win64; x64) AppleWebKit/537.36 (KHTML, like Gecko) draw.io/24.4.0 Chrome/120.0.6099.109 Electron/28.1.0 Safari/537.36" etag="6w0NIVFERkcf2Rf3MMeI" version="24.4.0" type="device">
  <diagram name="第 1 页" id="ewl9boTtj5eG1xmZE2dz">
    <mxGraphModel dx="117" dy="75" grid="1" gridSize="3.937" guides="1" tooltips="1" connect="1" arrows="1" fold="1" page="1" pageScale="1" pageWidth="60" pageHeight="48" background="#464647" math="0" shadow="0">
      <root>
        <mxCell id="0" />
        <mxCell id="1" parent="0" />
        <mxCell id="Qx5aouD3Gt9WSdJ8F9J7-1" value="" style="sketch=0;pointerEvents=1;shadow=0;dashed=0;html=1;strokeColor=none;fillColor=#E6E6E6;labelPosition=center;verticalLabelPosition=bottom;verticalAlign=top;outlineConnect=0;align=center;shape=mxgraph.office.concepts.folder_open;" vertex="1" parent="1">
          <mxGeometry x="2" y="3" width="56" height="43" as="geometry" />
        </mxCell>
      </root>
    </mxGraphModel>
  </diagram>
</mxfile>
